<svg xmlns="http://www.w3.org/2000/svg" width="44.483" height="41.515" viewBox="0 0 44.483 41.515">
  <g id="Groupe_45" data-name="Groupe 45" transform="translate(-194.584 -2802.326)">
    <path id="Tracé_82" data-name="Tracé 82" d="M553.063,401.149l-5.869,4.482-5.47-5.345-12.863,9.6a16.461,16.461,0,1,1,24.2-8.738Z" transform="translate(-325.033 2422.926)" fill="#c61526"/>
    <g id="Groupe_43" data-name="Groupe 43" transform="translate(195.984 2817.188)">
      <path id="Tracé_87" data-name="Tracé 87" d="M562.09,404.37l-9.024,6.887-5.869,4.482-5.47-5.345-12.863,9.6-7.845,5.857" transform="translate(-521.02 -404.37)" fill="none" stroke="#fff" stroke-linecap="round" stroke-linejoin="round" stroke-width="2"/>
    </g>
    <g id="Groupe_44" data-name="Groupe 44" transform="translate(195.984 2819.311)">
      <path id="Tracé_87-2" data-name="Tracé 87" d="M562.09,404.37l-9.024,6.887-5.869,4.482-5.47-5.345-12.863,9.6-7.845,5.857" transform="translate(-521.02 -402.721)" fill="none" stroke="#c61526" stroke-linecap="round" stroke-linejoin="round" stroke-width="2"/>
      <path id="Tracé_88" data-name="Tracé 88" d="M581.149,401.6h6.294v6.294" transform="translate(-545.359 -401.6)" fill="none" stroke="#c61526" stroke-linecap="round" stroke-linejoin="round" stroke-width="2"/>
    </g>
    <g id="Groupe_29" data-name="Groupe 29" transform="translate(208.924 2809.236)">
      <path id="Tracé_89" data-name="Tracé 89" d="M547.277,396.048h-2a2.526,2.526,0,0,1-2.518-2.519h0a2.526,2.526,0,0,1,2.518-2.518H549.8" transform="translate(-542.761 -391.011)" fill="none" stroke="#fff" stroke-linecap="round" stroke-linejoin="round" stroke-width="2"/>
      <path id="Tracé_90" data-name="Tracé 90" d="M545.279,399.474h2a2.526,2.526,0,0,1,2.519,2.518h0a2.526,2.526,0,0,1-2.519,2.519h-4.516" transform="translate(-542.761 -394.437)" fill="none" stroke="#fff" stroke-linecap="round" stroke-linejoin="round" stroke-width="2"/>
    </g>
    <line id="Ligne_9" data-name="Ligne 9" y1="2.311" transform="translate(213.246 2806.925)" fill="none" stroke="#fff" stroke-linecap="round" stroke-linejoin="round" stroke-width="2"/>
    <line id="Ligne_10" data-name="Ligne 10" y1="2.311" transform="translate(212.441 2819.577)" fill="none" stroke="#fff" stroke-linecap="round" stroke-linejoin="round" stroke-width="2"/>
  </g>
</svg>
