<svg xmlns="http://www.w3.org/2000/svg" width="1291" height="480" viewBox="0 0 1291 480">

  <circle id="Ellipse_9" data-name="Ellipse 9" cx="216" cy="216" r="216" transform="translate(959 48)" fill="#fff" opacity="0.1"/>

  <circle id="Ellipse_10" data-name="Ellipse 10" cx="104" cy="104" r="104" fill="#fff" opacity="0.1"/>

  <circle id="Ellipse_11" data-name="Ellipse 11" cx="34.5" cy="34.5" r="34.5" transform="translate(349 235)" fill="#fff" opacity="0.1"/>

  <path id="Tracé_69" data-name="Tracé 69" d="M226.1,466.207a.916.916,0,0,1-.189-.02.879.879,0,0,1-.67-1.048c.647-2.931-1.14-5.861-2.864-8.695-1.843-3.024-3.707-6.868-2.16-10.4a6.925,6.925,0,0,1,.855-1.44c-3.072-5.3-2.243-12.541,1.122-17.3,3.957-5.6,11.041-9.069,19.436-9.525a.866.866,0,0,1,.926.829.88.88,0,0,1-.829.926c-7.74.421-14.5,3.7-18.1,8.784-2.849,4.031-3.645,10.3-1.264,14.94a14.715,14.715,0,0,1,2.788-1.807,10.948,10.948,0,0,1,5.212-1.484,5.563,5.563,0,0,1,4.957,2.827,4.6,4.6,0,0,1,.038,3.888,5.916,5.916,0,0,1-3.513,3.284,8.508,8.508,0,0,1-7.833-1.919,12.306,12.306,0,0,1-1.878-1.89,5.161,5.161,0,0,0-.307.591c-1.221,2.794.431,6.124,2.007,8.715,1.862,3.053,3.922,6.437,3.123,10.058A.878.878,0,0,1,226.1,466.207Zm-2.8-21.434a10.381,10.381,0,0,0,1.819,1.906c1.537,1.25,3.967,2.329,6.186,1.611A4.114,4.114,0,0,0,233.738,446a2.873,2.873,0,0,0,.011-2.421,3.886,3.886,0,0,0-3.409-1.854,9.253,9.253,0,0,0-4.378,1.289A12.528,12.528,0,0,0,223.3,444.772Z" transform="translate(-135.559 -294.011)" fill="#8ddff8"/>

  <path id="Tracé_67" data-name="Tracé 67" d="M512.749,365.033a.82.82,0,0,1-.465-1.495c2.43-1.675,3.866-5.03,3.658-8.547A16.052,16.052,0,0,0,514.77,350a11.167,11.167,0,0,1-4.863.653,9.024,9.024,0,0,1-6.866-3.81,5.355,5.355,0,0,1-.852-4.768,4.158,4.158,0,0,1,2.3-2.349,5.813,5.813,0,0,1,4.427-.035c2.3.958,3.807,3.062,4.981,4.993.655,1.079,1.218,2.111,1.695,3.108a7.825,7.825,0,0,0,1.725-1.358c3.3-3.489,3.646-9.564.793-14.133-2.526-4.046-7.235-6.946-12.917-7.956a.819.819,0,0,1,.286-1.612c6.138,1.089,11.249,4.261,14.02,8.7,3.236,5.18,2.808,12.113-.993,16.125a9.578,9.578,0,0,1-2.248,1.748,17.687,17.687,0,0,1,1.317,5.584,11.222,11.222,0,0,1-4.364,9.993A.816.816,0,0,1,512.749,365.033Zm-6-24.124a4,4,0,0,0-1.6.323,2.535,2.535,0,0,0-1.418,1.411,3.82,3.82,0,0,0,.678,3.294,7.4,7.4,0,0,0,5.643,3.087,9.608,9.608,0,0,0,4.061-.535q-.675-1.413-1.61-2.949c-1.038-1.706-2.349-3.556-4.212-4.332A4.036,4.036,0,0,0,506.744,340.909Z" transform="translate(696.067 -203.222)" fill="#ffaf00"/>

  <path id="Tracé_68" data-name="Tracé 68" d="M557.974,478.98a5.436,5.436,0,0,1-.608-.035.685.685,0,1,1,.157-1.361c2.735.312,5.1-2.218,5.589-4.778.465-2.412-.218-5.158-2.031-8.164-.713-1.181-1.542-2.332-2.344-3.444a45.655,45.655,0,0,1-2.748-4.127c-1.307-2.311-2.661-5.79-1.689-9.244a8.709,8.709,0,0,1,9.9-6,.685.685,0,1,1-.282,1.341,7.4,7.4,0,0,0-8.3,5.025c-.844,3,.384,6.114,1.563,8.2a44.5,44.5,0,0,0,2.668,4c.818,1.136,1.664,2.309,2.405,3.538,1.994,3.3,2.734,6.377,2.2,9.132C563.883,476.044,561.2,478.98,557.974,478.98Z" transform="translate(455.033 -338.324)" fill="#ffe853"/>

  <g id="Groupe_23" data-name="Groupe 23" transform="translate(-44 -1548)">
    <path id="Tracé_43" data-name="Tracé 43" d="M138.738,342.766a8.67,8.67,0,0,1,1.664,7.041c7.716-1.1,12.481-2.769,19.34-5.646a16.573,16.573,0,0,0-1.9-8.7C151.365,340.11,146.425,341.464,138.738,342.766Z" transform="translate(35.199 1439.725)" fill="#ffaf00"/>
    <path id="Tracé_57" data-name="Tracé 57" d="M270.748,420.542c1.99.826,3.64.433,6.32-.3-1.829-5.783-2.042-12.469-1.566-20.234a9.2,9.2,0,0,1-5.966-.61C268.544,407.578,268.706,412.244,270.748,420.542Z" transform="translate(-155.239 1390.996)" fill="#ffe853"/>
    <path id="Tracé_65" data-name="Tracé 65" d="M325.521,336.407a9.121,9.121,0,0,1-3.515-6.749c-7.584,3.114-12.009,6.052-18.259,10.753a17.444,17.444,0,0,0,4.186,8.376C313.335,342.381,318.021,339.721,325.521,336.407Z" transform="translate(-89.347 1318.933)" fill="#00d339"/>
    <path id="Tracé_73" data-name="Tracé 73" d="M321.737,335.234a7.535,7.535,0,0,1-2.9-5.576,60.781,60.781,0,0,0-15.085,8.884,14.412,14.412,0,0,0,3.459,6.92C311.669,340.169,315.54,337.972,321.737,335.234Z" transform="matrix(-0.259, 0.966, -0.966, -0.259, 745.11, 1594.379)" fill="#00d339"/>
    <path id="Tracé_70" data-name="Tracé 70" d="M549.63,319.407a6.857,6.857,0,0,1,1.08,5.614,55.31,55.31,0,0,0,15.45-3.815,13.1,13.1,0,0,0-1.212-6.928C559.683,317.729,555.74,318.635,549.63,319.407Z" transform="translate(-472.268 1736.131) rotate(-30)" fill="#ff41aa"/>
    <path id="Tracé_71" data-name="Tracé 71" d="M214,398.109c1.2-7.554,2.263-11.365,6.281-16.463-2.754-1.285-4.263-2.5-4.93-4.352-4.71,5.212-6.609,9.768-8.587,17.674A15.059,15.059,0,0,0,214,398.109Z" transform="translate(42.801 1399.893)" fill="#82c4f2"/>
  </g>

  <g id="Groupe_24" data-name="Groupe 24" transform="translate(878.931 -1550.331)">
    <path id="Tracé_43-2" data-name="Tracé 43" d="M138.738,342.766a8.67,8.67,0,0,1,1.664,7.041c7.716-1.1,12.481-2.769,19.34-5.646a16.573,16.573,0,0,0-1.9-8.7C151.365,340.11,146.425,341.464,138.738,342.766Z" transform="translate(75.663 1458.56)" fill="#ffaf00"/>
    <path id="Tracé_57-2" data-name="Tracé 57" d="M270.748,420.542c1.99.826,3.64.433,6.32-.3-1.829-5.783-2.042-12.469-1.566-20.234a9.2,9.2,0,0,1-5.966-.61C268.544,407.578,268.706,412.244,270.748,420.542Z" transform="translate(-155.239 1390.996)" fill="#ffe853"/>
    <path id="Tracé_65-2" data-name="Tracé 65" d="M325.521,336.407a9.121,9.121,0,0,1-3.515-6.749c-7.584,3.114-12.009,6.052-18.259,10.753a17.444,17.444,0,0,0,4.186,8.376C313.335,342.381,318.021,339.721,325.521,336.407Z" transform="translate(-89.347 1318.933)" fill="#00d339"/>
    <path id="Tracé_73-2" data-name="Tracé 73" d="M321.737,335.234a7.535,7.535,0,0,1-2.9-5.576,60.781,60.781,0,0,0-15.085,8.884,14.412,14.412,0,0,0,3.459,6.92C311.669,340.169,315.54,337.972,321.737,335.234Z" transform="matrix(-0.259, 0.966, -0.966, -0.259, 745.11, 1594.379)" fill="#00d339"/>
    <path id="Tracé_70-2" data-name="Tracé 70" d="M549.63,319.407a6.857,6.857,0,0,1,1.08,5.614,55.31,55.31,0,0,0,15.45-3.815,13.1,13.1,0,0,0-1.212-6.928C559.683,317.729,555.74,318.635,549.63,319.407Z" transform="translate(-472.268 1736.131) rotate(-30)" fill="#ff41aa"/>
    <path id="Tracé_71-2" data-name="Tracé 71" d="M214,398.109c1.2-7.554,2.263-11.365,6.281-16.463-2.754-1.285-4.263-2.5-4.93-4.352-4.71,5.212-6.609,9.768-8.587,17.674A15.059,15.059,0,0,0,214,398.109Z" transform="translate(47.801 1344.683)" fill="#82c4f2"/>
  </g>

</svg>
